<mxfile host="app.diagrams.net" agent="Mozilla/5.0 (Windows NT 10.0; Win64; x64) AppleWebKit/537.36 (KHTML, like Gecko) Chrome/134.0.0.0 Safari/537.36" version="26.1.1">
  <diagram name="Page-1" id="GP7_Z0NNA2ljHT4xtDrI">
    <mxGraphModel dx="2161" dy="656" grid="1" gridSize="10" guides="1" tooltips="1" connect="1" arrows="1" fold="1" page="1" pageScale="1" pageWidth="850" pageHeight="1100" math="0" shadow="0">
      <root>
        <mxCell id="0" />
        <mxCell id="1" parent="0" />
        <mxCell id="M43tU7fwzl-PePR9jTW0-42" value="Paciente" style="shape=actor;verticalLabelPosition=bottom;align=center;html=1;" vertex="1" parent="1">
          <mxGeometry x="30" y="170" width="40" height="60" as="geometry" />
        </mxCell>
        <mxCell id="M43tU7fwzl-PePR9jTW0-43" value="Secretária/Recepcionista" style="shape=actor;verticalLabelPosition=bottom;align=center;html=1;" vertex="1" parent="1">
          <mxGeometry x="30" y="310" width="40" height="60" as="geometry" />
        </mxCell>
        <mxCell id="M43tU7fwzl-PePR9jTW0-44" value="Médico" style="shape=actor;verticalLabelPosition=bottom;align=center;html=1;" vertex="1" parent="1">
          <mxGeometry x="910" y="150" width="40" height="60" as="geometry" />
        </mxCell>
        <mxCell id="M43tU7fwzl-PePR9jTW0-45" value="Enfermeiro" style="shape=actor;verticalLabelPosition=bottom;align=center;html=1;" vertex="1" parent="1">
          <mxGeometry x="910" y="250" width="40" height="60" as="geometry" />
        </mxCell>
        <mxCell id="M43tU7fwzl-PePR9jTW0-46" value="Administrador" style="shape=actor;verticalLabelPosition=bottom;align=center;html=1;" vertex="1" parent="1">
          <mxGeometry x="910" y="350" width="40" height="60" as="geometry" />
        </mxCell>
        <mxCell id="M43tU7fwzl-PePR9jTW0-47" value="Gestor de Saúde/Diretoria" style="shape=actor;verticalLabelPosition=bottom;align=center;html=1;" vertex="1" parent="1">
          <mxGeometry x="910" y="450" width="40" height="60" as="geometry" />
        </mxCell>
        <mxCell id="M43tU7fwzl-PePR9jTW0-48" value="Operadora de Convênio" style="shape=actor;verticalLabelPosition=bottom;align=center;html=1;" vertex="1" parent="1">
          <mxGeometry x="30" y="450" width="40" height="60" as="geometry" />
        </mxCell>
        <mxCell id="M43tU7fwzl-PePR9jTW0-49" value="Laboratório" style="shape=actor;verticalLabelPosition=bottom;align=center;html=1;" vertex="1" parent="1">
          <mxGeometry x="40" y="590" width="40" height="60" as="geometry" />
        </mxCell>
        <mxCell id="M43tU7fwzl-PePR9jTW0-50" value="Fornecedor" style="shape=actor;verticalLabelPosition=bottom;align=center;html=1;" vertex="1" parent="1">
          <mxGeometry x="910" y="550" width="40" height="60" as="geometry" />
        </mxCell>
        <mxCell id="M43tU7fwzl-PePR9jTW0-51" style="edgeStyle=orthogonalEdgeStyle;rounded=0;jettySize=auto;html=1;" edge="1" parent="1" source="M43tU7fwzl-PePR9jTW0-42" target="M43tU7fwzl-PePR9jTW0-28">
          <mxGeometry relative="1" as="geometry" />
        </mxCell>
        <mxCell id="M43tU7fwzl-PePR9jTW0-52" style="edgeStyle=orthogonalEdgeStyle;rounded=0;jettySize=auto;html=1;" edge="1" parent="1" source="M43tU7fwzl-PePR9jTW0-42" target="M43tU7fwzl-PePR9jTW0-30">
          <mxGeometry relative="1" as="geometry" />
        </mxCell>
        <mxCell id="M43tU7fwzl-PePR9jTW0-53" style="edgeStyle=orthogonalEdgeStyle;rounded=0;jettySize=auto;html=1;" edge="1" parent="1" source="M43tU7fwzl-PePR9jTW0-43" target="M43tU7fwzl-PePR9jTW0-29">
          <mxGeometry relative="1" as="geometry" />
        </mxCell>
        <mxCell id="M43tU7fwzl-PePR9jTW0-54" style="edgeStyle=orthogonalEdgeStyle;rounded=0;jettySize=auto;html=1;" edge="1" parent="1" source="M43tU7fwzl-PePR9jTW0-35" target="M43tU7fwzl-PePR9jTW0-30">
          <mxGeometry relative="1" as="geometry" />
        </mxCell>
        <mxCell id="M43tU7fwzl-PePR9jTW0-55" style="edgeStyle=orthogonalEdgeStyle;rounded=0;jettySize=auto;html=1;" edge="1" parent="1" source="M43tU7fwzl-PePR9jTW0-43" target="M43tU7fwzl-PePR9jTW0-32">
          <mxGeometry relative="1" as="geometry" />
        </mxCell>
        <mxCell id="M43tU7fwzl-PePR9jTW0-56" style="edgeStyle=orthogonalEdgeStyle;rounded=0;jettySize=auto;html=1;" edge="1" parent="1" source="M43tU7fwzl-PePR9jTW0-43" target="M43tU7fwzl-PePR9jTW0-37">
          <mxGeometry relative="1" as="geometry" />
        </mxCell>
        <mxCell id="M43tU7fwzl-PePR9jTW0-57" style="edgeStyle=orthogonalEdgeStyle;rounded=0;jettySize=auto;html=1;" edge="1" parent="1" source="M43tU7fwzl-PePR9jTW0-44" target="M43tU7fwzl-PePR9jTW0-28">
          <mxGeometry relative="1" as="geometry" />
        </mxCell>
        <mxCell id="M43tU7fwzl-PePR9jTW0-58" style="edgeStyle=orthogonalEdgeStyle;rounded=0;jettySize=auto;html=1;" edge="1" parent="1" source="M43tU7fwzl-PePR9jTW0-44" target="M43tU7fwzl-PePR9jTW0-31">
          <mxGeometry relative="1" as="geometry" />
        </mxCell>
        <mxCell id="M43tU7fwzl-PePR9jTW0-59" style="edgeStyle=orthogonalEdgeStyle;rounded=0;jettySize=auto;html=1;" edge="1" parent="1" source="M43tU7fwzl-PePR9jTW0-44" target="M43tU7fwzl-PePR9jTW0-38">
          <mxGeometry relative="1" as="geometry" />
        </mxCell>
        <mxCell id="M43tU7fwzl-PePR9jTW0-60" style="edgeStyle=orthogonalEdgeStyle;rounded=0;jettySize=auto;html=1;" edge="1" parent="1" source="M43tU7fwzl-PePR9jTW0-44" target="M43tU7fwzl-PePR9jTW0-41">
          <mxGeometry relative="1" as="geometry" />
        </mxCell>
        <mxCell id="M43tU7fwzl-PePR9jTW0-61" style="edgeStyle=orthogonalEdgeStyle;rounded=0;jettySize=auto;html=1;" edge="1" parent="1" source="M43tU7fwzl-PePR9jTW0-45" target="M43tU7fwzl-PePR9jTW0-31">
          <mxGeometry relative="1" as="geometry" />
        </mxCell>
        <mxCell id="M43tU7fwzl-PePR9jTW0-62" style="edgeStyle=orthogonalEdgeStyle;rounded=0;jettySize=auto;html=1;" edge="1" parent="1" source="M43tU7fwzl-PePR9jTW0-45" target="M43tU7fwzl-PePR9jTW0-33">
          <mxGeometry relative="1" as="geometry" />
        </mxCell>
        <mxCell id="M43tU7fwzl-PePR9jTW0-63" style="edgeStyle=orthogonalEdgeStyle;rounded=0;jettySize=auto;html=1;" edge="1" parent="1" source="M43tU7fwzl-PePR9jTW0-45" target="M43tU7fwzl-PePR9jTW0-38">
          <mxGeometry relative="1" as="geometry" />
        </mxCell>
        <mxCell id="M43tU7fwzl-PePR9jTW0-64" style="edgeStyle=orthogonalEdgeStyle;rounded=0;jettySize=auto;html=1;" edge="1" parent="1" source="M43tU7fwzl-PePR9jTW0-46" target="M43tU7fwzl-PePR9jTW0-29">
          <mxGeometry relative="1" as="geometry" />
        </mxCell>
        <mxCell id="M43tU7fwzl-PePR9jTW0-65" style="edgeStyle=orthogonalEdgeStyle;rounded=0;jettySize=auto;html=1;" edge="1" parent="1" source="M43tU7fwzl-PePR9jTW0-46" target="M43tU7fwzl-PePR9jTW0-34">
          <mxGeometry relative="1" as="geometry" />
        </mxCell>
        <mxCell id="M43tU7fwzl-PePR9jTW0-66" style="edgeStyle=orthogonalEdgeStyle;rounded=0;jettySize=auto;html=1;" edge="1" parent="1" source="M43tU7fwzl-PePR9jTW0-46" target="M43tU7fwzl-PePR9jTW0-32">
          <mxGeometry relative="1" as="geometry" />
        </mxCell>
        <mxCell id="M43tU7fwzl-PePR9jTW0-67" style="edgeStyle=orthogonalEdgeStyle;rounded=0;jettySize=auto;html=1;" edge="1" parent="1" source="M43tU7fwzl-PePR9jTW0-46" target="M43tU7fwzl-PePR9jTW0-35">
          <mxGeometry relative="1" as="geometry" />
        </mxCell>
        <mxCell id="M43tU7fwzl-PePR9jTW0-68" style="edgeStyle=orthogonalEdgeStyle;rounded=0;jettySize=auto;html=1;" edge="1" parent="1" source="M43tU7fwzl-PePR9jTW0-46" target="M43tU7fwzl-PePR9jTW0-40">
          <mxGeometry relative="1" as="geometry" />
        </mxCell>
        <mxCell id="M43tU7fwzl-PePR9jTW0-69" style="edgeStyle=orthogonalEdgeStyle;rounded=0;jettySize=auto;html=1;" edge="1" parent="1" source="M43tU7fwzl-PePR9jTW0-47" target="M43tU7fwzl-PePR9jTW0-35">
          <mxGeometry relative="1" as="geometry" />
        </mxCell>
        <mxCell id="M43tU7fwzl-PePR9jTW0-70" style="edgeStyle=orthogonalEdgeStyle;rounded=0;jettySize=auto;html=1;" edge="1" parent="1" source="M43tU7fwzl-PePR9jTW0-47" target="M43tU7fwzl-PePR9jTW0-36">
          <mxGeometry relative="1" as="geometry" />
        </mxCell>
        <mxCell id="M43tU7fwzl-PePR9jTW0-71" style="edgeStyle=orthogonalEdgeStyle;rounded=0;jettySize=auto;html=1;" edge="1" parent="1" source="M43tU7fwzl-PePR9jTW0-47" target="M43tU7fwzl-PePR9jTW0-40">
          <mxGeometry relative="1" as="geometry" />
        </mxCell>
        <mxCell id="M43tU7fwzl-PePR9jTW0-72" style="edgeStyle=orthogonalEdgeStyle;rounded=0;jettySize=auto;html=1;" edge="1" parent="1" source="M43tU7fwzl-PePR9jTW0-48" target="M43tU7fwzl-PePR9jTW0-32">
          <mxGeometry relative="1" as="geometry" />
        </mxCell>
        <mxCell id="M43tU7fwzl-PePR9jTW0-73" style="edgeStyle=orthogonalEdgeStyle;rounded=0;jettySize=auto;html=1;" edge="1" parent="1" source="M43tU7fwzl-PePR9jTW0-48" target="M43tU7fwzl-PePR9jTW0-39">
          <mxGeometry relative="1" as="geometry" />
        </mxCell>
        <mxCell id="M43tU7fwzl-PePR9jTW0-74" style="edgeStyle=orthogonalEdgeStyle;rounded=0;jettySize=auto;html=1;" edge="1" parent="1" source="M43tU7fwzl-PePR9jTW0-49" target="M43tU7fwzl-PePR9jTW0-37">
          <mxGeometry relative="1" as="geometry" />
        </mxCell>
        <mxCell id="M43tU7fwzl-PePR9jTW0-75" style="edgeStyle=orthogonalEdgeStyle;rounded=0;jettySize=auto;html=1;" edge="1" parent="1" source="M43tU7fwzl-PePR9jTW0-39" target="M43tU7fwzl-PePR9jTW0-33">
          <mxGeometry relative="1" as="geometry" />
        </mxCell>
        <mxCell id="M43tU7fwzl-PePR9jTW0-28" value="Login/Autenticação" style="ellipse;whiteSpace=wrap;html=1;" vertex="1" parent="1">
          <mxGeometry x="240" y="60" width="120" height="60" as="geometry" />
        </mxCell>
        <mxCell id="M43tU7fwzl-PePR9jTW0-29" value="Gerenciar Pacientes" style="ellipse;whiteSpace=wrap;html=1;" vertex="1" parent="1">
          <mxGeometry x="440" y="70" width="140" height="60" as="geometry" />
        </mxCell>
        <mxCell id="M43tU7fwzl-PePR9jTW0-30" value="Agendar Consultas e Exames" style="ellipse;whiteSpace=wrap;html=1;" vertex="1" parent="1">
          <mxGeometry x="650" y="80" width="180" height="60" as="geometry" />
        </mxCell>
        <mxCell id="M43tU7fwzl-PePR9jTW0-31" value="Gerenciar Prontuários Médicos" style="ellipse;whiteSpace=wrap;html=1;" vertex="1" parent="1">
          <mxGeometry x="220" y="160" width="180" height="60" as="geometry" />
        </mxCell>
        <mxCell id="M43tU7fwzl-PePR9jTW0-32" value="Gerenciar Faturamento e Convênios" style="ellipse;whiteSpace=wrap;html=1;" vertex="1" parent="1">
          <mxGeometry x="450" y="180" width="200" height="60" as="geometry" />
        </mxCell>
        <mxCell id="M43tU7fwzl-PePR9jTW0-33" value="Gerenciar Estoque" style="ellipse;whiteSpace=wrap;html=1;" vertex="1" parent="1">
          <mxGeometry x="690" y="180" width="140" height="60" as="geometry" />
        </mxCell>
        <mxCell id="M43tU7fwzl-PePR9jTW0-34" value="Gerenciar Recursos Humanos" style="ellipse;whiteSpace=wrap;html=1;" vertex="1" parent="1">
          <mxGeometry x="130" y="240" width="180" height="60" as="geometry" />
        </mxCell>
        <mxCell id="M43tU7fwzl-PePR9jTW0-36" value="Monitorar Compliance e Segurança" style="ellipse;whiteSpace=wrap;html=1;" vertex="1" parent="1">
          <mxGeometry x="660" y="300" width="200" height="60" as="geometry" />
        </mxCell>
        <mxCell id="M43tU7fwzl-PePR9jTW0-37" value="Integrar com Laboratórios" style="ellipse;whiteSpace=wrap;html=1;" vertex="1" parent="1">
          <mxGeometry x="250" y="380" width="180" height="60" as="geometry" />
        </mxCell>
        <mxCell id="M43tU7fwzl-PePR9jTW0-38" value="Gestão de Internações e Leitos" style="ellipse;whiteSpace=wrap;html=1;" vertex="1" parent="1">
          <mxGeometry x="450" y="390" width="180" height="60" as="geometry" />
        </mxCell>
        <mxCell id="M43tU7fwzl-PePR9jTW0-40" value="Gerenciar Unidades e Departamentos" style="ellipse;whiteSpace=wrap;html=1;" vertex="1" parent="1">
          <mxGeometry x="380" y="510" width="220" height="60" as="geometry" />
        </mxCell>
        <mxCell id="M43tU7fwzl-PePR9jTW0-76" value="" style="edgeStyle=orthogonalEdgeStyle;rounded=0;jettySize=auto;html=1;" edge="1" parent="1" source="M43tU7fwzl-PePR9jTW0-43" target="M43tU7fwzl-PePR9jTW0-35">
          <mxGeometry relative="1" as="geometry">
            <mxPoint x="90" y="330" as="sourcePoint" />
            <mxPoint x="740" y="140" as="targetPoint" />
          </mxGeometry>
        </mxCell>
        <mxCell id="M43tU7fwzl-PePR9jTW0-35" value="Gerar Relatórios Gerenciais" style="ellipse;whiteSpace=wrap;html=1;" vertex="1" parent="1">
          <mxGeometry x="460" y="290" width="180" height="60" as="geometry" />
        </mxCell>
        <mxCell id="M43tU7fwzl-PePR9jTW0-77" value="" style="edgeStyle=orthogonalEdgeStyle;rounded=0;jettySize=auto;html=1;" edge="1" parent="1" source="M43tU7fwzl-PePR9jTW0-41" target="M43tU7fwzl-PePR9jTW0-39">
          <mxGeometry relative="1" as="geometry">
            <mxPoint x="910" y="580" as="sourcePoint" />
            <mxPoint x="760" y="240" as="targetPoint" />
          </mxGeometry>
        </mxCell>
        <mxCell id="M43tU7fwzl-PePR9jTW0-39" value="Gestão de Operadoras de Saúde" style="ellipse;whiteSpace=wrap;html=1;" vertex="1" parent="1">
          <mxGeometry x="670" y="390" width="180" height="60" as="geometry" />
        </mxCell>
        <mxCell id="M43tU7fwzl-PePR9jTW0-78" value="" style="edgeStyle=orthogonalEdgeStyle;rounded=0;jettySize=auto;html=1;" edge="1" parent="1" source="M43tU7fwzl-PePR9jTW0-50" target="M43tU7fwzl-PePR9jTW0-41">
          <mxGeometry relative="1" as="geometry">
            <mxPoint x="910" y="580" as="sourcePoint" />
            <mxPoint x="760" y="450" as="targetPoint" />
          </mxGeometry>
        </mxCell>
        <mxCell id="M43tU7fwzl-PePR9jTW0-41" value="Gerenciar Agenda de Cirurgias" style="ellipse;whiteSpace=wrap;html=1;" vertex="1" parent="1">
          <mxGeometry x="670" y="480" width="180" height="60" as="geometry" />
        </mxCell>
        <mxCell id="M43tU7fwzl-PePR9jTW0-81" style="edgeStyle=orthogonalEdgeStyle;rounded=0;orthogonalLoop=1;jettySize=auto;html=1;exitX=0.9;exitY=0.5;exitDx=0;exitDy=0;exitPerimeter=0;" edge="1" parent="1" source="M43tU7fwzl-PePR9jTW0-43" target="M43tU7fwzl-PePR9jTW0-43">
          <mxGeometry relative="1" as="geometry" />
        </mxCell>
      </root>
    </mxGraphModel>
  </diagram>
</mxfile>
